REM DIRINDEX 1\8,1\2\11,1\3\12,1\3\14,1\5\15,1\5\16,1\6\17,1\6\18,1\4\19,1\4\20,1\4\21,1\4\22,1\7\23,1\7\24,1\7\25,1\2\9\26,1\2\9\27,1\2\10\28,1\2\10\29,1\2\10\30,1\2\10\31,1\2\10\32,1\3\13\33,1\3\13\34,1\3\13\35
REM DIRNAME cjc123,folder01,folder02,folder03,folder04,folder05,folder06,folder07,folder08,folder09,folder10,folder11,folder12,folder13,folder14,folder15,folder16,folder17,folder18,folder19,folder20,folder21,folder22,folder23,folder24,folder25,folder26,folder27,folder28,folder29,folder30,folder31,folder32,folder33,folder34
TITLE ""
FILE "102 102_UNIT5_WARM-UP-40.mp3" MP3
  TRACK 01 AUDIO
    TITLE "14:cjc123_1685"
    INDEX 01 00:00:00
  TRACK 02 AUDIO
    TITLE "0:"
    INDEX 01 00:02:73
  TRACK 03 AUDIO
    TITLE "12:cjc123_1686"
    INDEX 01 00:03:47
  TRACK 04 AUDIO
    TITLE "0:"
    INDEX 01 00:04:60
  TRACK 05 AUDIO
    TITLE "12:cjc123_1687"
    INDEX 01 00:05:30
  TRACK 06 AUDIO
    TITLE "0:"
    INDEX 01 00:07:21
  TRACK 07 AUDIO
    TITLE "12:cjc123_1688"
    INDEX 01 00:07:68
  TRACK 08 AUDIO
    TITLE "0:"
    INDEX 01 00:08:70
  TRACK 09 AUDIO
    TITLE "12:cjc123_1689"
    INDEX 01 00:09:49
  TRACK 10 AUDIO
    TITLE "0:"
    INDEX 01 00:10:72
  TRACK 11 AUDIO
    TITLE "12:cjc123_1690"
    INDEX 01 00:11:50
  TRACK 12 AUDIO
    TITLE "0:"
    INDEX 01 00:12:63
  TRACK 13 AUDIO
    TITLE "12:cjc123_1691"
    INDEX 01 00:13:43
  TRACK 14 AUDIO
    TITLE "0:"
    INDEX 01 00:14:58
  TRACK 15 AUDIO
    TITLE "12:cjc123_1692"
    INDEX 01 00:15:30
  TRACK 16 AUDIO
    TITLE "0:"
    INDEX 01 00:16:57
  TRACK 17 AUDIO
    TITLE "12:cjc123_1693"
    INDEX 01 00:17:29
  TRACK 18 AUDIO
    TITLE "0:"
    INDEX 01 00:18:46
  TRACK 19 AUDIO
    TITLE "12:cjc123_1694"
    INDEX 01 00:19:20
  TRACK 20 AUDIO
    TITLE "0:"
    INDEX 01 00:20:55
  TRACK 21 AUDIO
    TITLE "12:cjc123_1695"
    INDEX 01 00:21:35
  TRACK 22 AUDIO
    TITLE "0:"
    INDEX 01 00:22:30
  TRACK 23 AUDIO
    TITLE "12:cjc123_1696"
    INDEX 01 00:23:10
  TRACK 24 AUDIO
    TITLE "0:"
    INDEX 01 00:24:06
  TRACK 25 AUDIO
    TITLE "12:cjc123_1697"
    INDEX 01 00:24:59
  TRACK 26 AUDIO
    TITLE "0:"
    INDEX 01 00:26:09
  TRACK 27 AUDIO
    TITLE "12:cjc123_1698"
    INDEX 01 00:26:58
  TRACK 28 AUDIO
    TITLE "0:"
    INDEX 01 00:28:06
  TRACK 29 AUDIO
    TITLE "12:cjc123_1699"
    INDEX 01 00:28:55
  TRACK 30 AUDIO
    TITLE "0:"
    INDEX 01 00:29:52
  TRACK 31 AUDIO
    TITLE "12:cjc123_1700"
    INDEX 01 00:30:34
  TRACK 32 AUDIO
    TITLE "0:"
    INDEX 01 00:31:61
  TRACK 33 AUDIO
    TITLE "12:cjc123_1701"
    INDEX 01 00:32:33
  TRACK 34 AUDIO
    TITLE "0:"
    INDEX 01 00:34:04
  TRACK 35 AUDIO
    TITLE "12:cjc123_1702"
    INDEX 01 00:34:53
  TRACK 36 AUDIO
    TITLE "0:"
    INDEX 01 00:35:57
  TRACK 37 AUDIO
    TITLE "0:"
    INDEX 01 00:36:35
  TRACK 38 AUDIO
    TITLE "0:"
    INDEX 01 00:37:63
  TRACK 39 AUDIO
    TITLE "12:cjc123_1703"
    INDEX 01 00:38:49
  TRACK 40 AUDIO
    TITLE "0:"
    INDEX 01 00:39:66
  TRACK 41 AUDIO
    TITLE "12:cjc123_1704"
    INDEX 01 00:40:48
  TRACK 42 AUDIO
    TITLE "0:"
    INDEX 01 00:42:00
  TRACK 43 AUDIO
    TITLE "12:cjc123_1705"
    INDEX 01 00:42:57
  TRACK 44 AUDIO
    TITLE "0:"
    INDEX 01 00:43:60
  TRACK 45 AUDIO
    TITLE "12:cjc123_1706"
    INDEX 01 00:44:61
  TRACK 46 AUDIO
    TITLE "0:"
    INDEX 01 00:45:51
  TRACK 47 AUDIO
    TITLE "12:cjc123_1707"
    INDEX 01 00:46:37
  TRACK 48 AUDIO
    TITLE "0:"
    INDEX 01 00:47:30
  TRACK 49 AUDIO
    TITLE "12:cjc123_1708"
    INDEX 01 00:48:10
  TRACK 50 AUDIO
    TITLE "0:"
    INDEX 01 00:49:18
  TRACK 51 AUDIO
    TITLE "12:cjc123_1709"
    INDEX 01 00:50:01
  TRACK 52 AUDIO
    TITLE "0:"
    INDEX 01 00:50:66
  TRACK 53 AUDIO
    TITLE "12:cjc123_1710"
    INDEX 01 00:51:50
  TRACK 54 AUDIO
    TITLE "0:"
    INDEX 01 00:52:39
  TRACK 55 AUDIO
    TITLE "12:cjc123_1711"
    INDEX 01 00:53:19
  TRACK 56 AUDIO
    TITLE "0:"
    INDEX 01 00:54:54
  TRACK 57 AUDIO
    TITLE "12:cjc123_1712"
    INDEX 01 00:55:26
  TRACK 58 AUDIO
    TITLE "0:"
    INDEX 01 00:56:37
  TRACK 59 AUDIO
    TITLE "12:cjc123_1713"
    INDEX 01 00:57:09
  TRACK 60 AUDIO
    TITLE "0:"
    INDEX 01 00:57:72
  TRACK 61 AUDIO
    TITLE "12:cjc123_1714"
    INDEX 01 00:58:56
  TRACK 62 AUDIO
    TITLE "0:"
    INDEX 01 00:59:73
  TRACK 63 AUDIO
    TITLE "12:cjc123_1715"
    INDEX 01 01:00:45
  TRACK 64 AUDIO
    TITLE "0:"
    INDEX 01 01:01:64
  TRACK 65 AUDIO
    TITLE "12:cjc123_1716"
    INDEX 01 01:02:38
  TRACK 66 AUDIO
    TITLE "0:"
    INDEX 01 01:03:45
  TRACK 67 AUDIO
    TITLE "12:cjc123_1717"
    INDEX 01 01:04:31
  TRACK 68 AUDIO
    TITLE "0:"
    INDEX 01 01:05:48
  TRACK 69 AUDIO
    TITLE "12:cjc123_1718"
    INDEX 01 01:06:28
  TRACK 70 AUDIO
    TITLE "0:"
    INDEX 01 01:07:27
  TRACK 71 AUDIO
    TITLE "12:cjc123_1719"
    INDEX 01 01:08:09
  TRACK 72 AUDIO
    TITLE "0:"
    INDEX 01 01:09:03
  TRACK 73 AUDIO
    TITLE "12:cjc123_1720"
    INDEX 01 01:09:57
  TRACK 74 AUDIO
    TITLE "0:"
    INDEX 01 01:11:03
  TRACK 75 AUDIO
    TITLE "12:cjc123_1721"
    INDEX 01 01:11:56
  TRACK 76 AUDIO
    TITLE "0:"
    INDEX 01 01:13:00
  TRACK 77 AUDIO
    TITLE "12:cjc123_1722"
    INDEX 01 01:13:49
  TRACK 78 AUDIO
    TITLE "0:"
    INDEX 01 01:14:63
  TRACK 79 AUDIO
    TITLE "12:cjc123_1723"
    INDEX 01 01:15:37
  TRACK 80 AUDIO
    TITLE "0:"
    INDEX 01 01:16:48
  TRACK 81 AUDIO
    TITLE "12:cjc123_1724"
    INDEX 01 01:17:26
  TRACK 82 AUDIO
    TITLE "0:"
    INDEX 01 01:18:15
  TRACK 83 AUDIO
    TITLE "12:cjc123_1725"
    INDEX 01 01:18:70
  TRACK 84 AUDIO
    TITLE "0:"
    INDEX 01 01:20:12
